<mxfile host="app.diagrams.net" modified="2024-07-18T06:40:02.598Z" agent="Mozilla/5.0 (Windows NT 10.0; Win64; x64) AppleWebKit/537.36 (KHTML, like Gecko) Chrome/126.0.0.0 Safari/537.36" version="24.7.0" etag="I2_RO1UBW-8lxE4tFt9u" type="github">
  <diagram name="Page-1" id="K4p0GGkuaTeYr5wrWHAe">
    <mxGraphModel>
      <root>
        <mxCell id="0" />
        <mxCell id="1" parent="0" />
      </root>
    </mxGraphModel>
  </diagram>
</mxfile>
